<svg width="33" height="33" viewBox="0 0 33 33" fill="none" xmlns="http://www.w3.org/2000/svg">
<g clip-path="url(#clip0_201_260)">
<path d="M11 9.625C11 11.0837 11.5795 12.4826 12.6109 13.5141C13.6424 14.5455 15.0413 15.125 16.5 15.125C17.9587 15.125 19.3576 14.5455 20.3891 13.5141C21.4205 12.4826 22 11.0837 22 9.625C22 8.16631 21.4205 6.76736 20.3891 5.73591C19.3576 4.70446 17.9587 4.125 16.5 4.125C15.0413 4.125 13.6424 4.70446 12.6109 5.73591C11.5795 6.76736 11 8.16631 11 9.625Z" stroke="white" stroke-width="2" stroke-linecap="round" stroke-linejoin="round"/>
<path d="M8.25 28.875V26.125C8.25 24.6663 8.82946 23.2674 9.86091 22.2359C10.8924 21.2045 12.2913 20.625 13.75 20.625H19.25C20.7087 20.625 22.1076 21.2045 23.1391 22.2359C24.1705 23.2674 24.75 24.6663 24.75 26.125V28.875" stroke="white" stroke-width="2" stroke-linecap="round" stroke-linejoin="round"/>
</g>
<defs>
<clipPath id="clip0_201_260">
<rect width="33" height="33" fill="white"/>
</clipPath>
</defs>
</svg>
