<svg width="34" height="34" viewBox="0 0 34 34" fill="none" xmlns="http://www.w3.org/2000/svg">
<g clip-path="url(#clip0_201_270)">
<path d="M7.08325 18.4166C7.08325 17.6652 7.38176 16.9445 7.91312 16.4132C8.44447 15.8818 9.16514 15.5833 9.91659 15.5833H24.0833C24.8347 15.5833 25.5554 15.8818 26.0867 16.4132C26.6181 16.9445 26.9166 17.6652 26.9166 18.4166V26.9166C26.9166 27.6681 26.6181 28.3888 26.0867 28.9201C25.5554 29.4515 24.8347 29.75 24.0833 29.75H9.91659C9.16514 29.75 8.44447 29.4515 7.91312 28.9201C7.38176 28.3888 7.08325 27.6681 7.08325 26.9166V18.4166Z" stroke="white" stroke-width="2" stroke-linecap="round" stroke-linejoin="round"/>
<path d="M15.5833 22.6667C15.5833 23.0424 15.7325 23.4027 15.9982 23.6684C16.2639 23.9341 16.6242 24.0833 16.9999 24.0833C17.3756 24.0833 17.736 23.9341 18.0017 23.6684C18.2673 23.4027 18.4166 23.0424 18.4166 22.6667C18.4166 22.2909 18.2673 21.9306 18.0017 21.6649C17.736 21.3993 17.3756 21.25 16.9999 21.25C16.6242 21.25 16.2639 21.3993 15.9982 21.6649C15.7325 21.9306 15.5833 22.2909 15.5833 22.6667Z" stroke="white" stroke-width="2" stroke-linecap="round" stroke-linejoin="round"/>
<path d="M11.3333 15.5833V9.91667C11.3333 8.41377 11.9303 6.97243 12.993 5.90973C14.0557 4.84702 15.497 4.25 16.9999 4.25C18.5028 4.25 19.9442 4.84702 21.0069 5.90973C22.0696 6.97243 22.6666 8.41377 22.6666 9.91667V15.5833" stroke="white" stroke-width="2" stroke-linecap="round" stroke-linejoin="round"/>
</g>
<defs>
<clipPath id="clip0_201_270">
<rect width="34" height="34" fill="white"/>
</clipPath>
</defs>
</svg>
