<svg width="174" height="174" viewBox="0 0 174 174" fill="none" xmlns="http://www.w3.org/2000/svg">
<g clip-path="url(#clip0_243_279)">
<path d="M21.75 87C21.75 95.5688 23.4377 104.054 26.7169 111.97C29.996 119.887 34.8023 127.08 40.8613 133.139C46.9203 139.198 54.1134 144.004 62.0299 147.283C69.9464 150.562 78.4312 152.25 87 152.25C95.5688 152.25 104.054 150.562 111.97 147.283C119.887 144.004 127.08 139.198 133.139 133.139C139.198 127.08 144.004 119.887 147.283 111.97C150.562 104.054 152.25 95.5688 152.25 87C152.25 78.4312 150.562 69.9464 147.283 62.0299C144.004 54.1134 139.198 46.9203 133.139 40.8613C127.08 34.8023 119.887 29.996 111.97 26.7169C104.054 23.4377 95.5688 21.75 87 21.75C78.4312 21.75 69.9464 23.4377 62.0299 26.7169C54.1134 29.996 46.9203 34.8023 40.8613 40.8613C34.8023 46.9203 29.996 54.1134 26.7169 62.0299C23.4377 69.9464 21.75 78.4312 21.75 87Z" stroke="#C0A080" stroke-width="5" stroke-linecap="round" stroke-linejoin="round"/>
<path d="M65.25 72.5C65.25 78.2685 67.5415 83.8007 71.6204 87.8796C75.6993 91.9585 81.2315 94.25 87 94.25C92.7685 94.25 98.3007 91.9585 102.38 87.8796C106.458 83.8007 108.75 78.2685 108.75 72.5C108.75 66.7315 106.458 61.1993 102.38 57.1204C98.3007 53.0415 92.7685 50.75 87 50.75C81.2315 50.75 75.6993 53.0415 71.6204 57.1204C67.5415 61.1993 65.25 66.7315 65.25 72.5Z" stroke="#C0A080" stroke-width="5" stroke-linecap="round" stroke-linejoin="round"/>
<path d="M44.7178 136.655C46.5122 130.683 50.184 125.448 55.1886 121.727C60.1931 118.007 66.2637 115.998 72.4998 116H101.5C107.744 115.998 113.822 118.011 118.83 121.74C123.838 125.47 127.509 130.716 129.296 136.699" stroke="#C0A080" stroke-width="5" stroke-linecap="round" stroke-linejoin="round"/>
</g>
<defs>
<clipPath id="clip0_243_279">
<rect width="174" height="174" fill="white"/>
</clipPath>
</defs>
</svg>
